<svg width="512" height="512" viewBox="0 0 512 512" fill="none" xmlns="http://www.w3.org/2000/svg">
  <rect width="512" height="512" rx="96" fill="#101216"/>
  <path d="M96 352C132 294 169 265 207 265C264 265 283 348 339 348C371 348 397 329 416 292V416H96V352Z" fill="#5EE0B8"/>
  <path d="M88 100C136 78 183 68 230 70C302 73 356 103 424 78V244C356 269 302 239 230 236C183 234 136 244 88 266V100Z" fill="#F5C84C"/>
  <circle cx="192" cy="184" r="46" fill="#F06D5E"/>
  <circle cx="330" cy="182" r="64" stroke="#F4F1E8" stroke-width="18"/>
  <path d="M171 378H347" stroke="#F4F1E8" stroke-width="18" stroke-linecap="round"/>
</svg>
